<?xml version="1.0" standalone="no"?>
<!DOCTYPE svg PUBLIC "-//W3C//DTD SVG 20010904//EN"
 "http://www.w3.org/TR/2001/REC-SVG-20010904/DTD/svg10.dtd">
<svg version="1.0" xmlns="http://www.w3.org/2000/svg"
 width="536.000000pt" height="720.000000pt" viewBox="0 0 536.000000 720.000000"
 preserveAspectRatio="xMidYMid meet">

<g transform="translate(0.000000,720.000000) scale(0.100000,-0.100000)"
fill="#000000" stroke="none">
<path d="M1768 7013 c7 -3 16 -2 19 1 4 3 -2 6 -13 5 -11 0 -14 -3 -6 -6z"/>
<path d="M1660 7000 c-24 -8 -24 -8 5 -8 17 0 41 4 55 8 24 8 24 8 -5 8 -16 0
-41 -4 -55 -8z"/>
<path d="M1598 6983 c7 -3 16 -2 19 1 4 3 -2 6 -13 5 -11 0 -14 -3 -6 -6z"/>
<path d="M1195 6690 c-3 -5 -1 -10 4 -10 6 0 11 5 11 10 0 6 -2 10 -4 10 -3 0
-8 -4 -11 -10z"/>
<path d="M1194 6653 c-4 -13 -10 -20 -15 -17 -5 3 -9 -4 -9 -15 0 -19 2 -20
20 -9 25 16 31 31 19 49 -7 11 -10 9 -15 -8z"/>
<path d="M1010 6584 c0 -6 11 -21 24 -33 20 -19 24 -20 30 -6 3 9 10 13 16 10
6 -3 7 1 4 9 -4 11 -14 14 -31 10 -16 -4 -28 -2 -34 7 -5 8 -9 9 -9 3z"/>
<path d="M1066 6524 c-6 -14 9 -54 20 -54 2 0 0 9 -6 19 -14 27 -13 31 8 24
15 -6 15 -5 3 10 -17 21 -17 21 -25 1z"/>
<path d="M1161 6502 c9 -15 8 -23 -6 -40 -10 -11 -22 -19 -27 -16 -4 3 -8 0
-8 -5 0 -6 7 -11 15 -11 10 0 15 -10 15 -31 0 -35 23 -36 28 -1 4 24 10 27 32
12 13 -9 13 -12 -3 -21 -9 -6 -15 -14 -12 -20 4 -5 -4 -9 -16 -9 -18 0 -20 -4
-14 -27 3 -16 7 -38 7 -50 0 -13 4 -21 8 -18 9 5 21 -45 22 -90 1 -16 3 -23 6
-15 3 9 12 -6 22 -35 14 -42 14 -54 3 -77 -17 -36 -16 -51 2 -44 20 7 20 -24
0 -50 -20 -26 -19 -64 1 -64 14 0 16 -8 10 -57 -5 -46 -4 -55 6 -45 19 19 33
14 33 -13 0 -16 -5 -23 -12 -20 -15 5 -17 -13 -4 -33 6 -10 10 -10 20 2 11 13
17 13 46 0 40 -16 83 -18 119 -4 14 5 26 7 26 4 0 -9 -43 -69 -52 -72 -4 -2
-8 -8 -8 -13 0 -6 -12 -22 -26 -37 -23 -24 -25 -33 -21 -86 4 -39 12 -68 26
-85 12 -14 31 -40 43 -57 l22 -32 124 -7 c104 -6 127 -4 148 9 15 11 24 12 24
5 0 -8 31 -10 113 -5 61 4 150 8 197 9 47 2 96 9 110 16 13 8 40 15 60 17 106
9 158 30 134 54 -17 16 -148 82 -203 101 -92 32 -124 27 -183 -31 -28 -27 -55
-50 -59 -50 -5 0 -20 -20 -34 -44 -23 -40 -51 -63 -62 -52 -3 2 9 60 26 128
17 68 31 130 31 139 0 28 -144 127 -225 154 -14 5 20 20 118 52 128 41 137 46
137 69 0 14 11 59 25 100 14 41 25 86 25 99 0 14 5 25 10 25 15 0 82 -77 107
-124 13 -22 37 -54 54 -69 30 -28 33 -28 142 -27 62 1 116 1 121 1 6 -1 -3
-14 -19 -31 -28 -29 -29 -54 -1 -31 11 10 19 7 40 -14 14 -14 26 -32 26 -40 0
-26 -12 -45 -30 -45 -18 0 -44 -23 -35 -32 3 -3 -1 -11 -10 -18 -16 -14 -21
-35 -5 -25 6 4 7 -2 1 -16 -4 -13 -14 -25 -21 -27 -9 -3 -10 0 -2 14 7 13 6
21 -3 31 -45 45 -40 -31 8 -124 20 -40 37 -81 37 -92 0 -11 6 -23 13 -28 23
-15 82 -12 107 5 14 9 32 15 42 14 9 -2 33 4 53 13 21 8 48 15 61 15 13 0 24
4 24 9 0 5 11 12 24 15 19 5 25 14 29 43 12 80 6 141 -14 166 -10 14 -19 28
-19 32 0 3 -19 31 -42 61 -28 38 -50 57 -70 61 -40 8 -29 28 17 30 23 0 44 8
51 17 6 9 22 16 35 16 18 0 29 -10 42 -40 24 -52 42 -53 31 -2 -9 47 -6 124 7
137 14 14 11 85 -3 90 -7 3 -29 6 -49 8 -20 2 -50 11 -67 19 -25 13 -29 13
-25 2 3 -8 10 -14 15 -14 6 0 5 -6 -2 -15 -17 -20 -40 -19 -40 2 0 15 -2 14
-15 -3 -14 -18 -14 -17 -15 14 0 24 4 32 17 32 14 0 14 3 5 13 -18 17 -329 22
-424 6 -40 -7 -107 -13 -148 -14 -41 -2 -93 -8 -115 -13 -22 -6 -67 -16 -100
-21 -71 -12 -89 -16 -214 -42 -114 -23 -122 -23 -115 -4 7 18 -21 21 -32 4 -4
-8 -9 -7 -15 2 -6 10 -12 9 -28 -5 -21 -19 -21 -18 -35 16 -26 62 -30 87 -12
94 9 3 13 10 10 15 -3 5 -14 5 -25 -1 -15 -9 -21 -7 -26 6 -4 10 -2 19 5 22 7
2 12 13 12 24 0 12 8 27 18 35 16 13 15 14 -8 9 -32 -7 -61 28 -33 39 14 5 12
9 -11 20 -32 17 -50 19 -41 6 3 -5 1 -12 -4 -15 -5 -4 -9 7 -9 24 1 16 5 30
10 30 5 0 4 9 -2 19 -13 25 -13 34 0 26 6 -3 13 1 16 10 11 28 -1 26 -33 -5
-28 -27 -32 -29 -44 -13 -11 13 -11 17 -1 20 6 3 12 14 11 26 0 12 -3 16 -6
10 -7 -18 -23 -16 -23 2 0 8 -7 15 -15 15 -12 0 -13 -4 -4 -18z m89 -171 c0
-12 -20 -25 -27 -18 -7 7 6 27 18 27 5 0 9 -4 9 -9z m220 -279 c0 -4 -9 -13
-20 -20 -19 -12 -20 -11 -8 8 13 20 28 27 28 12z m-50 -36 c0 -2 -7 -7 -16
-10 -8 -3 -12 -2 -9 4 6 10 25 14 25 6z m803 -22 c11 -11 -3 -24 -18 -18 -8 4
-12 10 -9 15 6 11 18 12 27 3z m-944 -167 c1 -10 -3 -16 -7 -13 -5 3 -9 22 -9
43 -1 33 0 35 7 13 4 -14 8 -33 9 -43z m1391 -58 c0 -5 -7 -9 -15 -9 -9 0 -12
6 -9 15 6 15 24 11 24 -6z m-100 -9 c0 -5 -5 -10 -11 -10 -5 0 -7 5 -4 10 3 6
8 10 11 10 2 0 4 -4 4 -10z m-820 -40 c8 -5 12 -11 9 -14 -3 -3 -14 1 -25 9
-21 16 -8 20 16 5z m666 -88 c-10 -10 -29 15 -21 28 6 9 10 8 17 -4 6 -10 7
-20 4 -24z m-796 13 c0 -8 -4 -15 -10 -15 -5 0 -10 7 -10 15 0 8 5 15 10 15 6
0 10 -7 10 -15z m190 -10 c0 -8 -4 -15 -10 -15 -5 0 -10 7 -10 15 0 8 5 15 10
15 6 0 10 -7 10 -15z m320 -104 c0 -5 -7 -11 -15 -15 -15 -5 -20 5 -8 17 9 10
23 9 23 -2z m70 -25 c0 -10 -34 2 -38 13 -3 10 0 10 17 2 11 -7 21 -13 21 -15z
m-146 -35 c-10 -10 -22 -17 -26 -14 -11 6 14 32 31 33 11 0 9 -5 -5 -19z
m-364 -67 c0 -8 -4 -12 -10 -9 -5 3 -10 10 -10 16 0 5 5 9 10 9 6 0 10 -7 10
-16z"/>
<path d="M1116 6400 c3 -14 11 -32 16 -40 6 -10 7 -7 2 10 -3 14 -11 32 -16
40 -6 10 -7 7 -2 -10z"/>
<path d="M1456 6134 c-11 -7 -17 -16 -15 -19 3 -3 14 2 25 9 10 8 17 17 14 19
-3 3 -14 -1 -24 -9z"/>
<path d="M2270 5676 c0 -2 7 -9 15 -16 9 -7 15 -8 15 -2 0 5 -7 12 -15 16 -8
3 -15 4 -15 2z"/>
<path d="M3030 5630 c-52 -27 -90 -50 -84 -50 13 0 184 89 184 96 0 6 3 7
-100 -46z"/>
<path d="M3279 5666 c-2 -22 -5 -31 -13 -56 -13 -38 -46 -55 -46 -24 0 14 -5
13 -32 -5 -83 -54 -204 -103 -259 -106 -31 -2 -69 -9 -85 -18 -136 -68 -614
-168 -895 -187 -90 -6 -198 -13 -239 -16 -88 -7 -245 16 -313 45 -25 11 -92
25 -149 31 -56 6 -106 14 -110 16 -15 10 -112 11 -178 2 -36 -4 -87 -10 -115
-13 -27 -4 -57 -13 -66 -21 -8 -8 -19 -11 -22 -7 -4 3 -7 -7 -7 -24 0 -30 24
-88 41 -98 5 -4 9 -12 9 -20 0 -22 88 -121 145 -163 23 -17 27 -24 17 -30 -10
-7 -8 -11 11 -14 23 -4 24 -3 16 31 -4 19 -7 36 -6 37 12 10 47 13 47 5 0 -6
-5 -11 -10 -11 -6 0 -10 -20 -9 -47 1 -27 -2 -58 -6 -70 -9 -26 28 -54 75 -57
28 -1 33 3 44 36 7 20 21 44 30 53 9 9 16 21 16 27 0 5 6 8 13 5 13 -4 11 -46
-4 -62 -5 -5 -9 -17 -9 -26 0 -9 -7 -22 -15 -29 -19 -16 -19 -30 0 -30 8 0 15
-4 15 -10 0 -5 5 -10 10 -10 6 0 10 9 10 20 0 22 40 29 40 8 1 -8 6 -6 14 5 7
9 18 17 25 17 16 0 3 -51 -18 -69 -15 -13 -15 -13 1 -8 10 3 20 2 23 -3 8 -13
-17 -50 -33 -50 -7 0 -15 -6 -18 -13 -2 -7 -15 -14 -27 -14 -12 -1 -32 -5 -44
-8 -33 -8 -36 11 -7 40 21 21 24 29 14 38 -10 9 -14 9 -17 0 -8 -22 -25 -14
-18 8 5 16 3 20 -6 17 -8 -3 -13 -14 -11 -24 2 -10 4 -38 5 -61 2 -23 6 -45
10 -49 4 -4 7 -15 7 -25 0 -9 6 -19 13 -22 9 -4 9 -7 0 -18 -41 -43 14 -38 60
6 45 43 57 44 57 5 0 -22 4 -28 15 -24 8 4 15 15 15 25 0 10 6 19 14 19 21 0
66 -40 66 -59 0 -9 6 -25 13 -36 24 -37 39 -103 27 -125 -6 -11 -13 -20 -17
-20 -20 0 -155 124 -150 139 0 3 -6 19 -14 34 l-15 28 -12 -26 c-11 -23 -16
-26 -47 -21 -26 5 -35 2 -35 -8 0 -8 5 -18 10 -21 15 -9 12 -51 -5 -65 -8 -7
-15 -20 -15 -30 0 -20 -24 -43 -34 -33 -4 4 -4 0 0 -10 3 -9 2 -23 -4 -30 -28
-35 -30 -117 -5 -180 9 -21 13 -40 11 -43 -3 -2 -34 -9 -69 -15 -198 -31 -397
-121 -431 -194 -15 -33 -34 -32 -67 3 -15 17 -41 31 -61 35 -34 6 -36 4 -82
-66 -26 -40 -52 -94 -59 -122 -6 -27 -17 -64 -24 -81 -7 -17 -11 -43 -8 -58 4
-18 1 -31 -8 -37 -12 -7 -10 -16 9 -52 18 -33 21 -49 14 -68 -9 -24 -8 -65 4
-145 6 -37 4 -43 -15 -49 -11 -3 -33 -22 -47 -40 -22 -29 -25 -41 -20 -82 2
-27 21 -86 40 -132 20 -46 36 -99 36 -121 0 -21 6 -43 14 -50 24 -19 4 -51
-60 -96 -32 -23 -67 -53 -78 -68 l-20 -26 23 -53 c49 -111 76 -221 67 -271 -4
-19 -20 -51 -36 -71 -17 -21 -30 -42 -30 -48 0 -6 -6 -18 -14 -26 -8 -9 -20
-47 -26 -85 -6 -38 -15 -77 -20 -85 -14 -23 -13 80 1 116 8 23 8 26 -3 15 -22
-22 -21 -147 1 -278 25 -145 26 -170 5 -209 -26 -50 -4 -233 47 -393 33 -104
39 -182 13 -182 -8 0 -12 -4 -9 -10 3 -5 2 -10 -4 -10 -5 0 -11 6 -14 13 -2 6
-8 9 -12 5 -4 -4 26 -40 67 -81 72 -72 118 -142 118 -183 0 -81 93 -261 133
-258 9 1 14 -2 11 -7 -9 -14 61 -39 108 -39 55 1 182 51 219 86 l28 27 90 -13
c50 -7 120 -10 155 -8 l66 6 6 -34 c3 -19 3 -48 0 -64 -3 -17 -9 -43 -12 -59
-6 -28 -5 -28 78 -51 95 -27 216 -37 246 -21 17 9 21 7 26 -17 22 -93 58 -114
55 -32 -1 28 3 56 9 62 6 6 32 14 58 18 39 6 49 4 69 -14 28 -27 45 -59 45
-88 0 -13 14 -41 30 -62 17 -22 30 -48 30 -58 0 -14 8 -18 33 -18 17 0 40 7
50 14 10 8 27 12 38 9 11 -3 27 1 37 10 9 9 37 17 62 19 42 3 46 6 71 51 14
27 32 73 38 103 11 47 16 54 36 54 22 0 24 -3 19 -32 -3 -18 -10 -45 -14 -61
-11 -33 6 -36 43 -7 34 27 37 26 37 -15 0 -33 2 -35 35 -35 42 0 62 17 95 83
16 29 32 47 42 47 10 0 18 -5 18 -11 0 -5 5 -7 10 -4 6 3 10 1 10 -6 0 -19 29
10 50 51 10 20 26 42 34 49 9 8 16 24 16 38 0 21 3 23 23 17 44 -14 52 -14 30
-3 -13 7 -23 16 -23 21 0 11 5 10 47 -7 44 -19 63 -19 63 -2 0 9 9 12 29 9 16
-2 32 1 35 7 4 6 4 11 -1 12 -67 4 -106 13 -143 32 -36 19 -44 28 -42 47 3 31
7 34 31 21 35 -19 103 -16 154 7 26 13 47 25 47 27 0 3 -34 2 -75 -2 -79 -6
-125 9 -125 42 0 9 -11 20 -25 25 -14 5 -25 13 -25 18 0 5 28 -5 62 -22 57
-28 71 -31 158 -30 79 0 103 4 140 23 51 26 90 59 90 75 0 6 9 17 20 24 11 7
20 19 20 27 0 8 3 15 8 15 4 0 15 12 25 25 17 23 14 23 -50 -10 -104 -53 -185
-71 -254 -56 -63 13 -186 87 -205 122 -7 14 -12 72 -12 148 -2 198 -25 348
-63 403 -11 14 -19 30 -19 34 0 8 -33 84 -56 125 -7 14 -11 28 -9 31 3 3 -5
31 -17 64 -16 43 -22 82 -22 144 0 101 6 179 16 177 11 -3 12 7 4 51 -3 24 -3
49 1 55 4 7 6 71 4 144 -2 90 1 139 10 154 17 32 14 78 -6 93 -16 12 -16 15 3
52 24 49 46 139 37 154 -4 6 0 19 8 28 8 9 17 29 21 45 4 16 13 27 23 27 19 0
42 28 43 52 0 10 10 29 23 44 25 30 29 81 8 106 -14 16 -16 16 -34 1 -18 -17
-18 -16 -15 11 3 25 -1 29 -25 33 -18 2 -29 -1 -33 -12 -3 -8 -11 -15 -16 -15
-6 0 -19 -11 -30 -25 -18 -23 -67 -37 -53 -15 3 6 1 10 -4 10 -6 0 -20 9 -31
20 -11 11 -20 18 -20 15 0 -2 -21 3 -47 11 -27 8 -68 19 -92 24 -37 9 -151 57
-151 64 0 1 9 28 21 60 17 49 18 64 8 88 -6 15 -12 49 -13 73 -2 28 -9 52 -20
63 -17 16 -17 16 -14 -3 2 -15 -2 -19 -16 -17 -11 2 -15 -1 -11 -8 4 -6 13 -9
20 -6 17 6 25 -15 25 -65 0 -21 5 -39 10 -39 6 0 10 -7 10 -16 0 -13 -3 -14
-14 -5 -11 10 -16 8 -20 -7 -4 -11 -15 -27 -24 -36 -16 -13 -23 -14 -45 -3
-25 11 -27 15 -21 57 4 25 6 47 6 50 0 40 -16 40 -37 0 -8 -16 -15 -46 -15
-67 0 -29 -3 -34 -12 -25 -15 15 -29 183 -17 196 12 13 11 36 -1 36 -5 0 -12
-12 -16 -27 -3 -16 -10 -39 -15 -52 -8 -19 -12 -21 -25 -10 -11 9 -14 22 -10
41 5 28 5 28 -19 12 -21 -13 -25 -24 -25 -62 0 -36 -3 -43 -12 -34 -18 18 -28
15 -28 -8 0 -11 4 -20 8 -20 4 0 27 -19 50 -42 27 -27 39 -45 33 -52 -15 -18
-15 -58 0 -110 11 -40 20 -52 46 -63 19 -8 33 -21 33 -31 0 -9 12 -23 27 -29
34 -16 43 -16 62 1 19 16 181 38 196 27 5 -5 51 -20 100 -35 273 -82 284 -87
255 -121 -11 -14 -14 -13 -24 1 -15 21 -34 15 -66 -20 -27 -30 -64 -36 -124
-20 -21 5 -27 4 -22 -5 4 -6 1 -11 -8 -11 -8 0 -17 4 -21 9 -3 5 -20 13 -38
16 -17 4 -59 18 -91 31 -67 27 -108 25 -80 -4 9 -9 25 -17 36 -19 26 -4 73
-36 59 -41 -6 -2 -32 8 -57 22 -26 14 -53 26 -60 26 -8 0 -14 7 -14 15 0 8 -5
15 -11 15 -5 0 -7 -5 -3 -12 7 -11 4 -11 -55 8 -13 4 -20 0 -23 -14 -5 -17 5
-25 55 -47 47 -20 58 -28 48 -38 -12 -12 63 -28 284 -58 48 -7 87 -18 98 -28
17 -16 16 -18 -3 -39 -12 -12 -26 -22 -33 -22 -7 0 -20 -8 -28 -18 -14 -16
-33 -19 -124 -21 -69 -1 -112 2 -121 10 -16 13 -94 19 -94 7 0 -4 5 -8 12 -8
6 0 9 -3 5 -6 -3 -3 -12 -2 -19 2 -18 11 -36 16 -82 19 -21 2 -42 7 -48 13
-12 12 -50 4 -42 -9 3 -5 0 -9 -6 -9 -7 0 -9 8 -5 20 4 14 1 22 -12 27 -24 9
-96 73 -82 73 8 0 10 14 6 39 -4 33 -2 40 15 44 25 7 14 27 -15 27 -20 0 -20
0 -1 15 10 8 15 15 9 14 -26 -3 -65 2 -63 9 3 10 -48 63 -54 56 -8 -7 19 -93
38 -122 9 -13 13 -26 10 -29 -3 -4 -1 -12 5 -20 8 -9 8 -13 1 -13 -12 0 -62
68 -62 83 0 5 -10 17 -22 28 l-23 18 23 1 c13 0 20 4 17 10 -4 6 -14 9 -23 8
-9 -2 -17 4 -18 12 0 8 -2 25 -2 38 -1 13 -7 20 -12 17 -13 -8 -13 -86 0 -120
8 -20 7 -27 -5 -31 -8 -4 -12 -10 -9 -15 3 -5 10 -6 16 -3 6 4 8 2 4 -4 -3 -6
-1 -14 5 -17 7 -5 3 -12 -10 -22 -16 -11 -19 -18 -12 -32 6 -10 11 -62 12
-117 1 -54 8 -114 16 -133 16 -42 17 -72 1 -68 -9 1 -13 -12 -13 -43 -1 -25
-8 -59 -18 -77 -18 -34 -23 -173 -6 -173 5 0 9 9 9 19 0 10 7 22 16 25 9 4 14
13 10 21 -3 8 -1 15 4 15 6 0 10 9 10 19 0 14 6 19 20 18 11 -1 20 -8 20 -18
0 -9 7 -22 15 -29 9 -8 13 -21 9 -36 -4 -15 -2 -24 6 -24 8 0 10 -9 6 -24 -7
-29 11 -45 21 -19 4 10 13 25 21 33 13 12 14 7 10 -43 l-5 -57 19 30 c10 17
18 35 18 40 0 6 5 10 10 10 6 0 10 11 10 25 0 15 6 25 15 25 12 0 31 47 39 95
2 12 16 18 17 8 1 -5 5 -16 10 -26 7 -12 6 -16 -2 -15 -6 2 -18 -17 -26 -42
-27 -85 -55 -150 -64 -150 -12 0 -12 -47 0 -52 5 -2 7 -14 4 -28 -3 -19 -17
-32 -53 -48 -47 -22 -73 -21 -95 2 -38 40 -85 106 -85 120 0 10 -4 15 -9 12
-4 -3 -13 6 -20 21 -6 14 -14 23 -18 20 -9 -9 36 -107 63 -140 13 -16 24 -40
24 -53 0 -30 -37 -173 -57 -221 -18 -44 -10 -54 13 -16 23 36 78 89 112 107
33 17 85 72 60 63 -29 -10 -29 10 -1 45 35 42 45 49 61 43 20 -7 37 15 56 73
20 59 36 76 36 36 0 -50 12 -16 21 62 11 85 33 144 55 144 8 0 14 -6 14 -13 0
-7 9 -30 19 -51 11 -21 25 -71 32 -112 10 -66 15 -75 40 -88 16 -8 29 -11 29
-8 0 12 -21 86 -29 107 -5 11 -16 49 -25 83 -9 35 -28 86 -41 113 -28 54 -29
59 -15 59 6 0 10 -5 10 -10 0 -6 12 -29 27 -53 36 -55 53 -94 53 -122 0 -12
11 -52 25 -89 35 -93 28 -115 -53 -172 -36 -25 -93 -55 -125 -65 -33 -10 -74
-28 -91 -39 -38 -24 -106 -93 -106 -109 0 -16 25 -14 40 4 7 9 15 13 18 11 4
-5 -35 -58 -59 -81 -53 -50 -81 -85 -87 -110 -5 -16 -5 -31 -1 -33 9 -4 72 38
77 51 8 18 32 5 32 -17 0 -13 5 -26 11 -28 6 -2 -9 -14 -32 -27 -23 -13 -59
-41 -80 -61 -30 -29 -49 -39 -86 -43 -43 -5 -51 -3 -80 25 l-31 30 19 33 c16
27 19 43 13 85 l-7 51 -31 -30 c-18 -17 -37 -31 -44 -31 -6 0 -20 -9 -31 -21
l-19 -20 -20 21 c-13 14 -22 18 -27 11 -4 -8 -13 -8 -28 1 -31 16 -45 38 -39
61 4 14 1 18 -7 13 -21 -13 -78 63 -111 146 -35 90 -35 88 -15 88 19 0 19 -1
-2 57 -30 84 -21 386 13 439 15 22 15 27 3 35 -12 8 -11 11 4 23 9 7 17 24 17
38 0 63 27 115 96 185 38 38 108 111 157 162 48 51 87 88 87 82 0 -6 8 -11 18
-11 24 0 71 90 78 148 10 89 37 197 65 257 l29 60 0 -45 c0 -25 -4 -51 -9 -59
-12 -19 -2 -43 15 -37 8 3 14 -1 14 -10 0 -8 4 -12 10 -9 5 3 18 1 29 -5 25
-13 42 8 17 22 -9 5 -14 14 -10 19 3 6 -2 19 -11 29 -25 28 -46 109 -39 149 4
20 15 54 25 75 11 22 19 45 19 50 0 20 118 149 151 167 43 23 95 24 134 2 17
-9 61 -32 100 -52 52 -27 74 -45 88 -73 28 -51 53 -56 64 -10 12 52 33 53 33
3 0 -30 -4 -41 -16 -41 -8 0 -13 -4 -9 -9 3 -5 21 -7 40 -4 24 4 35 2 35 -6 0
-7 5 -9 10 -6 13 8 13 52 -1 57 -5 2 -13 35 -16 73 -3 39 -10 78 -15 88 -9 18
-10 18 -23 0 -8 -11 -15 -37 -17 -59 l-3 -39 -30 47 c-21 32 -36 46 -50 45
-17 -2 -20 4 -20 38 0 48 -28 58 -33 12 -3 -22 -7 -27 -23 -22 -14 5 -17 3
-13 -9 3 -9 13 -16 21 -16 8 0 12 -4 8 -10 -8 -13 -55 10 -55 27 0 7 -8 17
-17 20 -10 4 -29 18 -43 31 -14 13 -35 27 -47 32 -24 10 -41 66 -25 82 12 12
-26 78 -44 78 -11 0 -44 74 -44 98 0 7 -4 12 -10 12 -12 0 -12 2 -1 -37 5 -17
7 -34 3 -37 -9 -9 -28 25 -42 77 -14 52 -28 51 -34 -1 -3 -33 -16 -57 -16 -32
0 7 -6 18 -14 24 -25 21 -46 92 -36 125 5 17 9 34 9 38 1 17 33 9 47 -12 17
-26 51 -39 61 -23 3 6 -1 17 -11 23 -15 12 -15 13 3 18 11 3 20 13 19 23 0 11
5 42 10 69 8 39 8 53 -2 63 -11 12 -17 10 -33 -7 l-20 -22 -47 44 c-25 24 -46
48 -46 52 0 4 -11 17 -23 29 -13 12 -27 35 -31 52 -8 29 -8 29 -19 7 -8 -15
-17 -19 -26 -14 -10 7 -11 22 -2 76 8 56 8 70 -4 82 -21 20 -20 67 1 59 9 -3
18 -6 20 -6 2 0 4 -6 4 -14 0 -8 7 -17 16 -20 12 -5 14 -13 10 -32 -6 -22 -4
-25 9 -20 9 3 19 6 21 6 2 0 4 8 4 18 0 9 9 28 20 42 20 24 21 25 35 6 8 -11
15 -26 15 -34 0 -41 84 -112 123 -104 18 4 18 5 1 23 -9 10 -22 19 -29 19 -10
0 -55 52 -55 64 0 2 8 2 17 0 29 -6 136 20 141 35 3 9 0 11 -9 6 -13 -9 -81
-8 -110 0 -19 6 -18 43 1 55 8 5 19 5 25 1 37 -29 96 -17 117 24 l14 26 28
-22 c19 -15 26 -28 23 -41 -4 -14 -2 -16 6 -10 7 5 27 7 45 5 26 -4 34 -11 39
-33 3 -15 18 -37 33 -49 23 -16 30 -30 32 -63 2 -35 7 -43 23 -43 18 0 20 -6
17 -57 -3 -47 -1 -58 11 -58 21 0 30 50 17 85 -6 15 -11 79 -11 141 0 94 3
120 21 153 22 44 25 77 10 101 -8 13 -10 12 -10 -3 0 -22 -49 -69 -62 -61 -5
3 -7 12 -4 20 3 8 -1 14 -10 14 -8 0 -12 -4 -9 -10 6 -10 -10 -15 -30 -10 -5
1 -17 2 -25 2 -27 -1 -94 31 -126 60 -28 26 -33 27 -65 17 -19 -7 -43 -20 -55
-30 -26 -24 -34 -24 -34 1 0 11 -4 20 -10 20 -11 0 -88 -28 -112 -41 -14 -7
-18 -5 -18 6 0 8 5 15 10 15 6 0 10 7 10 15 0 8 5 15 10 15 6 0 10 5 10 11 0
6 -9 8 -22 4 -17 -6 -20 -4 -15 10 4 9 7 19 7 21 0 2 7 4 15 4 8 0 15 4 15 9
0 11 43 28 93 36 20 3 37 9 37 14 0 4 19 6 43 4 23 -2 96 -5 163 -6 70 -1 127
-7 135 -13 16 -13 49 -15 49 -2 0 4 -7 8 -17 8 -9 0 -14 3 -10 6 3 3 14 3 24
0 23 -7 54 -97 55 -159 0 -25 7 -50 17 -62 10 -11 30 -49 46 -85 32 -74 48
-93 73 -88 13 2 18 15 20 61 2 42 7 57 18 57 8 0 17 -7 20 -15 5 -11 10 -12
25 -2 23 14 25 37 4 37 -18 0 -20 16 -3 26 6 4 17 -1 24 -10 18 -26 28 -1 9
27 -14 22 -12 37 7 37 4 0 8 -6 8 -14 0 -15 29 -26 70 -26 13 0 38 13 55 30
27 26 33 28 49 17 22 -16 12 -67 -15 -74 -28 -8 -23 -23 8 -23 26 0 93 38 93
53 0 4 5 7 10 7 13 0 13 -36 0 -60 -19 -35 5 -28 49 15 38 37 44 50 49 94 2
28 8 48 13 45 5 -3 13 -2 19 1 17 10 -19 66 -79 124 -36 35 -51 56 -43 59 8 2
26 -7 40 -21 37 -34 73 -51 81 -39 3 5 20 9 36 8 24 -1 30 -6 31 -23 1 -14 -6
-25 -18 -29 -13 -4 -16 -9 -9 -17 5 -7 15 -35 22 -62 6 -28 22 -68 34 -90 16
-30 20 -49 15 -75 l-6 -35 -9 40 -8 40 -21 -46 c-12 -25 -29 -54 -38 -63 -18
-18 -25 -56 -10 -56 5 0 9 -13 9 -30 0 -16 -4 -30 -9 -30 -5 0 -6 -11 -2 -24
4 -16 1 -25 -10 -29 -9 -4 -16 -14 -16 -23 0 -9 -8 -29 -17 -44 -13 -22 -26
-30 -52 -32 -32 -3 -36 -6 -34 -30 2 -30 -11 -38 -21 -12 -8 21 -22 10 -28
-21 -6 -28 8 -36 40 -22 28 13 40 2 24 -23 -8 -14 -9 -21 0 -26 13 -8 38 22
38 45 0 16 69 110 81 111 18 1 24 -223 7 -242 -7 -7 -14 -18 -14 -23 -1 -6 -4
-23 -8 -38 -11 -48 16 -27 49 38 26 51 31 72 36 169 3 61 10 124 17 139 17 41
15 55 -12 82 -21 21 -23 29 -15 64 5 22 20 51 34 65 14 14 25 34 25 46 0 11 5
20 11 20 12 0 8 39 -6 75 -8 20 -8 20 13 1 33 -29 38 -11 8 28 -14 19 -26 41
-26 50 0 8 -4 17 -9 20 -8 5 -18 51 -27 131 -4 32 -3 38 7 28 19 -19 31 -16
24 6 -10 31 14 35 37 6 25 -32 37 -25 15 9 -21 32 -11 39 22 15 15 -11 34 -22
42 -23 8 -2 27 -8 42 -14 44 -18 78 -25 76 -16 -1 5 -1 12 0 16 2 10 61 -12
61 -23 0 -5 5 -9 10 -9 6 0 10 6 10 13 0 7 16 21 35 31 33 18 46 48 26 61 -5
3 -7 30 -4 59 3 30 3 63 -1 73 -6 14 -11 9 -26 -25 -19 -42 -40 -56 -40 -26 0
8 5 24 11 36 14 26 3 36 -22 19 -27 -16 -38 -5 -13 14 19 15 19 16 -3 31 -27
19 -29 39 -7 52 18 10 48 72 35 72 -4 0 -24 -15 -44 -34 -39 -35 -73 -50 -82
-35 -3 4 15 27 40 51 48 45 78 87 90 127 5 16 4 21 -4 17 -7 -4 -11 1 -11 12
0 14 -7 20 -25 20 -14 0 -26 -6 -26 -12z m-51 -146 c-18 -22 -38 -40 -45 -40
-6 0 -13 -5 -15 -12 -3 -7 -7 -6 -11 5 -4 11 -1 17 8 17 9 0 15 9 15 22 0 12
3 18 7 15 3 -4 12 2 20 13 8 11 23 20 34 20 18 0 17 -4 -13 -40z m12 -187 c28
-25 25 -50 -9 -67 -26 -14 -30 -14 -35 0 -15 40 -6 74 21 83 2 1 12 -7 23 -16z
m-188 -45 c-15 -15 -26 -4 -18 18 5 13 9 15 18 6 9 -9 9 -15 0 -24z m-1939 5
c-7 -2 -21 -2 -30 0 -10 3 -4 5 12 5 17 0 24 -2 18 -5z m-104 -113 c10 -5 5
-10 -18 -15 -31 -7 -61 6 -61 27 0 10 54 2 79 -12z m1551 10 c0 -5 -12 -10
-27 -9 l-28 1 25 8 c14 4 26 8 28 9 1 1 2 -3 2 -9z m85 -8 c87 -1 96 -9 99
-80 l2 -62 -21 20 c-29 27 -38 25 -31 -6 4 -14 3 -24 -1 -22 -5 1 -31 12 -58
22 -28 11 -53 25 -57 30 -4 6 -10 8 -13 4 -8 -8 26 -48 41 -48 6 0 16 -11 22
-25 11 -23 10 -24 -16 -14 -15 6 -35 18 -44 26 -17 15 -18 15 -18 -4 0 -22
-56 -45 -89 -36 -10 3 -37 -7 -58 -20 -22 -14 -61 -28 -86 -32 -51 -8 -49 -11
-61 80 -3 22 -9 50 -12 62 -5 18 1 25 32 39 22 10 44 18 49 19 6 0 16 4 23 9
7 4 20 5 28 2 23 -9 74 5 74 20 0 8 11 14 26 14 14 0 23 -4 19 -10 -4 -6 8
-10 29 -10 26 0 36 5 41 21 5 13 10 17 18 11 7 -5 35 -10 62 -10z m-1760 -12
c3 -5 -1 -10 -9 -10 -9 0 -16 5 -16 10 0 6 4 10 9 10 6 0 13 -4 16 -10z m35 0
c0 -5 -4 -10 -10 -10 -5 0 -10 5 -10 10 0 6 5 10 10 10 6 0 10 -4 10 -10z m4
-46 c22 -9 20 -24 -3 -24 -21 0 -34 13 -24 24 8 7 8 7 27 0z m120 -9 c3 -9 0
-15 -9 -15 -8 0 -15 7 -15 15 0 8 4 15 9 15 5 0 11 -7 15 -15z m-58 -14 c-8
-7 -19 -10 -25 -7 -19 12 -12 24 14 22 20 -1 22 -3 11 -15z m122 -53 c-5 -15
-48 -24 -48 -10 0 14 12 22 33 22 10 0 17 -5 15 -12z m102 -58 c0 -5 -4 -10
-10 -10 -5 0 -10 5 -10 10 0 6 5 10 10 10 6 0 10 -4 10 -10z m1810 -30 c0 -5
-2 -10 -4 -10 -3 0 -8 5 -11 10 -3 6 -1 10 4 10 6 0 11 -4 11 -10z m20 -28 c0
-12 -22 -32 -34 -32 -6 0 -3 5 7 11 9 6 15 14 12 20 -4 5 -1 9 4 9 6 0 11 -4
11 -8z m-1822 -457 c16 -35 15 -37 -9 -30 -14 5 -25 2 -30 -6 -13 -21 -12 17
1 42 14 26 25 24 38 -6z m44 -157 c8 -7 18 -28 22 -46 5 -31 5 -32 -11 -16
-16 16 -18 15 -27 -5 -13 -29 -26 -26 -27 7 0 15 -3 21 -6 12 -17 -45 -92 -71
-91 -32 0 10 -3 26 -7 36 -6 14 -5 17 3 12 7 -4 12 -14 12 -22 0 -31 18 -12
24 26 6 39 7 40 49 40 24 0 50 -6 59 -12z m322 -349 c9 -17 14 -35 11 -39 -3
-4 23 -33 56 -64 56 -51 65 -70 21 -47 -9 6 -34 13 -54 16 -35 5 -38 8 -38 40
0 20 -6 38 -15 42 -10 6 -13 19 -8 46 3 20 7 37 9 37 1 0 10 -14 18 -31z m238
-64 c6 -29 -2 -38 -21 -25 -9 5 -11 17 -7 34 8 31 22 27 28 -9z m-8 -61 c3 -8
2 -12 -4 -9 -6 3 -10 10 -10 16 0 14 7 11 14 -7z m-54 -82 c0 -15 -2 -15 -10
-2 -13 20 -13 33 0 25 6 -3 10 -14 10 -23z m-1524 -578 c-6 -19 -12 -28 -14
-20 -3 13 14 56 22 56 2 0 -2 -16 -8 -36z m1164 -294 c0 -5 -2 -10 -4 -10 -3
0 -8 5 -11 10 -3 6 -1 10 4 10 6 0 11 -4 11 -10z m294 -130 c10 -13 9 -13 -6
-1 -10 7 -18 21 -17 30 0 13 1 14 6 1 3 -8 11 -22 17 -30z m61 -72 c6 -13 29
-28 55 -37 25 -9 47 -19 48 -24 2 -4 7 -5 11 -3 3 2 11 -7 18 -20 8 -18 8 -22
0 -18 -9 5 -9 4 -1 -5 6 -6 21 -13 34 -16 12 -2 25 -7 29 -11 3 -4 -1 -5 -9
-2 -8 3 -20 -2 -27 -11 -10 -15 -15 -14 -45 3 -18 10 -52 34 -75 53 -23 18
-45 33 -49 33 -13 0 -44 33 -44 47 0 7 7 13 15 13 8 0 15 5 15 10 0 18 15 11
25 -12z m580 -47 c-12 -11 -93 -27 -83 -16 4 4 22 11 40 15 47 11 53 11 43 1z
m-577 -106 c-8 -9 -48 27 -42 37 3 4 -2 5 -10 2 -9 -3 -16 -2 -16 3 0 24 16
21 44 -6 16 -17 27 -33 24 -36z m428 50 c-15 -8 -36 -15 -45 -15 -13 1 -13 3
3 15 11 8 31 15 45 15 l26 0 -29 -15z m-157 -29 c9 -11 6 -18 -19 -36 -18 -13
-38 -19 -47 -16 -14 6 -13 9 8 24 13 9 28 16 33 14 5 -2 6 4 3 13 -8 19 7 20
22 1z m-1086 -92 c-9 -15 -19 -21 -21 -15 -6 19 6 41 23 41 14 0 13 -3 -2 -26z
m1017 11 c-7 -9 -15 -13 -17 -11 -7 7 7 26 19 26 6 0 6 -6 -2 -15z m-415 -25
c4 -16 11 -32 16 -35 5 -4 9 -14 9 -25 0 -14 -5 -17 -21 -13 -18 5 -20 11 -16
40 3 18 2 31 -2 28 -5 -2 -11 4 -14 15 -3 13 0 20 8 20 7 0 16 -13 20 -30z
m812 -92 c-3 -8 -6 -5 -6 6 -1 11 2 17 5 13 3 -3 4 -12 1 -19z m-1942 -498 c3
-5 -7 -22 -22 -39 -32 -33 -83 -50 -83 -27 0 9 12 16 33 18 21 2 31 8 29 17
-7 33 27 57 43 31z m1315 -89 c0 -5 -7 -11 -14 -14 -10 -4 -13 -1 -9 9 6 15
23 19 23 5z m-150 -410 c0 -5 -12 -19 -26 -30 -24 -19 -28 -19 -54 -6 -30 15
-51 39 -28 30 8 -3 32 -1 53 4 54 12 55 12 55 2z m924 -581 c7 -24 6 -24 -8
-6 -9 11 -16 27 -16 35 0 21 16 2 24 -29z m-2109 -110 c7 0 17 -15 22 -32 5
-18 15 -32 21 -30 14 2 16 -14 3 -23 -10 -6 -50 41 -52 60 -1 6 -8 19 -15 30
-8 11 -14 24 -13 30 0 5 5 0 11 -12 6 -13 16 -23 23 -23z m1092 -52 c-3 -7 -5
-2 -5 12 0 14 2 19 5 13 2 -7 2 -19 0 -25z m690 -110 c-3 -8 -6 -5 -6 6 -1 11
2 17 5 13 3 -3 4 -12 1 -19z"/>
<path d="M2295 5100 c-3 -5 1 -10 9 -10 9 0 16 5 16 10 0 6 -4 10 -9 10 -6 0
-13 -4 -16 -10z"/>
<path d="M1288 5653 c7 -3 16 -2 19 1 4 3 -2 6 -13 5 -11 0 -14 -3 -6 -6z"/>
<path d="M2870 5634 c0 -10 -6 -14 -15 -11 -13 6 -95 -77 -95 -95 0 -5 15 -8
34 -8 19 0 38 -5 41 -11 5 -6 13 -3 22 10 8 12 23 21 33 21 11 0 24 9 31 21 9
17 7 25 -10 43 -12 12 -21 28 -21 34 0 7 -4 12 -10 12 -5 0 -10 -7 -10 -16z"/>
<path d="M1274 5605 c-1 -14 2 -25 7 -25 5 0 9 7 9 15 0 8 0 18 1 22 0 4 -3 9
-8 10 -4 2 -9 -8 -9 -22z"/>
<path d="M3373 5589 c-7 -18 -11 -34 -9 -37 7 -7 27 39 24 55 -2 9 -8 2 -15
-18z"/>
<path d="M1230 5525 c0 -8 4 -15 10 -15 5 0 7 7 4 15 -4 8 -8 15 -10 15 -2 0
-4 -7 -4 -15z"/>
<path d="M1253 5466 c-34 -34 -43 -66 -19 -66 7 0 19 -7 26 -15 10 -13 9 -15
-11 -15 -13 0 -59 7 -102 15 -43 8 -95 15 -115 14 l-37 -1 30 -8 c171 -45 276
-53 295 -22 11 16 11 16 6 0 -4 -13 0 -18 14 -18 10 0 22 5 25 10 3 6 -1 10
-9 10 -11 0 -13 8 -9 34 5 31 3 34 -25 41 -23 5 -32 13 -34 30 -3 25 -3 25
-35 -9z"/>
<path d="M3396 5425 c-7 -20 19 -39 32 -22 8 10 6 16 -8 24 -14 10 -19 9 -24
-2z"/>
<path d="M750 5420 c-12 -8 -11 -10 7 -10 12 0 25 5 28 10 8 13 -15 13 -35 0z"/>
<path d="M875 5398 c-27 -4 -60 -10 -71 -12 -26 -5 -77 -37 -70 -44 3 -3 12 0
20 7 19 16 39 20 184 37 29 3 50 9 47 13 -6 10 -47 10 -110 -1z"/>
<path d="M3430 5361 c0 -6 4 -12 8 -15 5 -3 9 1 9 9 0 8 -4 15 -9 15 -4 0 -8
-4 -8 -9z"/>
<path d="M705 5327 c-4 -10 -5 -21 -1 -24 10 -10 18 4 13 24 -4 17 -4 17 -12
0z"/>
<path d="M3430 5289 c0 -35 20 -59 52 -61 24 -2 26 -6 21 -27 -4 -16 -2 -22 5
-17 18 11 25 66 12 97 -13 31 -30 39 -30 13 0 -8 -4 -13 -9 -9 -5 3 -13 0 -17
-6 -4 -8 -11 -4 -20 12 l-13 24 -1 -26z"/>
<path d="M720 5260 c0 -31 13 -60 26 -60 11 0 11 5 2 28 -15 35 -28 50 -28 32z"/>
<path d="M3365 5100 c-3 -5 1 -10 9 -10 9 0 16 5 16 10 0 6 -4 10 -9 10 -6 0
-13 -4 -16 -10z"/>
<path d="M3300 5090 c0 -13 11 -13 30 0 12 8 11 10 -7 10 -13 0 -23 -4 -23
-10z"/>
<path d="M2904 5079 c-7 -12 12 -29 34 -29 19 0 14 18 -7 30 -14 7 -22 7 -27
-1z"/>
<path d="M3206 4981 c-3 -5 5 -16 19 -25 27 -18 32 -11 11 17 -15 19 -22 21
-30 8z"/>
<path d="M3275 4970 c3 -5 8 -10 11 -10 2 0 4 5 4 10 0 6 -5 10 -11 10 -5 0
-7 -4 -4 -10z"/>
<path d="M3447 4890 c-26 -51 -42 -77 -62 -100 -10 -11 -16 -23 -13 -25 3 -3
16 7 30 23 13 16 29 27 35 25 13 -5 36 69 30 95 -2 12 -8 7 -20 -18z"/>
<path d="M3270 4876 c0 -9 5 -16 10 -16 6 0 10 4 10 9 0 6 -4 13 -10 16 -5 3
-10 -1 -10 -9z"/>
<path d="M3111 4838 c19 -43 80 -78 124 -71 25 4 34 10 31 20 -3 7 0 22 6 33
18 29 1 36 -25 12 -29 -27 -41 -28 -34 -3 3 12 -1 22 -9 25 -9 3 -14 -2 -14
-15 0 -33 -28 -34 -61 -3 l-31 29 13 -27z"/>
<path d="M1110 4810 c0 -5 -7 -7 -15 -4 -8 4 -15 1 -15 -5 0 -12 11 -14 34 -5
18 7 22 24 6 24 -5 0 -10 -4 -10 -10z"/>
<path d="M1201 4798 c-17 -27 -9 -33 13 -9 10 10 13 21 9 24 -5 3 -15 -3 -22
-15z"/>
<path d="M1035 4790 c-3 -5 -1 -10 4 -10 6 0 11 5 11 10 0 6 -2 10 -4 10 -3 0
-8 -4 -11 -10z"/>
<path d="M994 4765 c21 -16 32 -13 21 4 -3 6 -14 11 -23 11 -15 -1 -15 -2 2
-15z"/>
<path d="M1900 4745 c-7 -8 -8 -15 -2 -15 5 0 15 7 22 15 7 8 8 15 2 15 -5 0
-15 -7 -22 -15z"/>
<path d="M2465 4718 c64 -34 105 -49 105 -39 0 16 -87 61 -117 61 -27 -1 -27
-1 12 -22z"/>
<path d="M3275 4710 c-3 -5 -1 -10 4 -10 6 0 11 5 11 10 0 6 -2 10 -4 10 -3 0
-8 -4 -11 -10z"/>
<path d="M3383 4704 c-17 -7 -35 -18 -38 -24 -4 -7 11 -2 34 9 23 12 41 24 41
26 0 6 3 7 -37 -11z"/>
<path d="M950 4699 c0 -5 5 -7 10 -4 6 3 10 8 10 11 0 2 -4 4 -10 4 -5 0 -10
-5 -10 -11z"/>
<path d="M1070 4700 c-12 -7 -12 -12 -3 -21 10 -10 14 -9 19 5 8 22 2 27 -16
16z"/>
<path d="M3115 4680 c-4 -6 -11 -8 -16 -4 -11 7 -40 -26 -33 -38 2 -3 -4 -29
-15 -55 -13 -34 -20 -78 -21 -144 -3 -92 3 -129 21 -129 5 0 36 -21 69 -46
l61 -46 -27 -26 c-15 -15 -33 -43 -41 -62 -17 -39 -70 -107 -128 -165 -23 -22
-54 -67 -70 -100 -20 -39 -57 -87 -108 -137 -42 -43 -81 -78 -86 -78 -5 0 -16
10 -25 23 -16 22 -16 21 -10 -13 l6 -35 -25 23 -25 23 -4 -36 c-2 -19 5 -63
16 -98 l20 -62 6 45 5 45 7 -44 c7 -50 2 -71 -18 -71 -19 0 -18 -13 7 -67 11
-25 22 -67 24 -94 5 -61 17 -84 26 -49 l6 25 12 -26 c15 -30 41 -34 41 -7 0
33 27 31 87 -5 38 -23 77 -38 113 -42 30 -4 71 -16 90 -26 42 -23 95 -14 95
16 0 10 11 22 25 27 14 5 37 21 52 35 21 20 32 24 58 18 35 -8 36 -16 10 -115
-8 -33 -9 -69 -1 -135 21 -178 23 -325 7 -450 -49 -375 -50 -398 -37 -574 15
-200 16 -262 6 -407 -7 -96 -5 -114 9 -136 21 -32 13 -88 -15 -114 -26 -23
-24 -34 6 -34 14 0 27 -6 29 -12 2 -7 16 -67 31 -133 16 -66 35 -136 43 -155
19 -47 29 -73 32 -85 2 -5 15 -18 31 -27 32 -19 32 -20 55 -155 9 -57 21 -103
26 -103 4 0 8 5 8 11 0 8 4 8 14 0 12 -10 18 -6 32 21 17 33 18 33 24 9 3 -14
12 -27 19 -29 8 -3 11 0 7 6 -4 6 2 8 14 5 11 -3 20 -9 20 -14 0 -4 9 -13 20
-19 26 -14 86 4 102 30 9 13 16 15 27 8 10 -6 25 -6 41 0 25 10 25 12 19 83
-10 133 -10 363 1 379 9 13 12 12 25 -4 17 -22 17 -23 40 24 l18 35 13 -30 c6
-16 10 -33 7 -37 -2 -5 0 -8 5 -8 6 0 12 7 16 15 9 25 24 17 31 -16 l7 -32 28
44 c20 32 33 77 50 164 25 139 86 388 102 419 16 31 40 56 48 51 8 -5 -10 -97
-20 -105 -4 -3 -10 -28 -14 -57 -4 -29 -13 -71 -21 -94 -9 -23 -14 -44 -12
-45 2 -2 20 10 41 27 20 17 40 28 43 25 4 -4 6 -24 5 -46 -2 -24 2 -40 8 -40
6 0 9 4 5 9 -3 5 -1 12 4 15 5 4 12 2 16 -4 3 -5 11 -10 16 -10 6 0 8 4 5 8
-3 5 8 16 23 25 25 15 60 71 76 122 5 16 8 17 15 5 7 -10 10 -11 10 -2 0 6 5
12 10 12 6 0 10 -7 10 -15 0 -8 6 -15 14 -15 18 0 26 -22 26 -76 0 -28 4 -43
10 -39 6 3 10 16 10 28 0 12 7 35 15 50 10 19 16 80 21 198 7 164 6 170 -14
189 -12 11 -24 36 -28 55 -3 19 -11 35 -16 35 -7 0 -8 12 -3 33 4 17 8 40 8
50 1 17 2 17 14 1 7 -9 10 -21 7 -25 -3 -5 0 -9 6 -9 8 0 10 9 6 23 -4 18 -1
23 14 24 12 1 20 -4 20 -13 0 -8 5 -12 10 -9 6 3 10 15 10 26 0 10 7 19 15 19
8 0 15 -9 15 -20 0 -18 21 -27 53 -21 5 1 6 -3 2 -9 -3 -5 -16 -10 -28 -11
-18 -1 -17 -2 7 -9 15 -5 38 -17 50 -27 21 -18 21 -18 3 3 -17 21 -17 22 4 27
24 7 20 33 -5 31 -13 -2 -14 1 -5 12 6 8 21 14 32 14 20 0 21 0 1 15 -18 15
-18 15 9 9 16 -4 27 -2 27 5 0 6 7 8 15 5 8 -4 15 -2 15 4 0 13 35 21 51 12
14 -9 80 112 119 220 18 51 35 75 74 111 28 26 61 65 73 88 41 78 54 303 22
375 -11 22 -52 40 -64 28 -3 -3 -2 -33 1 -67 8 -81 -10 -96 -26 -22 -9 40 -10
66 -1 106 16 77 14 148 -9 237 -35 137 -78 210 -161 279 -24 20 -60 115 -74
198 -5 30 -10 37 -28 37 -18 0 -30 14 -55 65 -36 73 -91 139 -135 162 -56 28
-126 14 -171 -36 -11 -12 -22 -21 -26 -21 -3 0 -41 23 -85 51 -92 60 -135 76
-235 90 -41 6 -109 22 -150 37 -60 21 -95 26 -178 28 -99 1 -105 3 -150 35
-96 68 -147 117 -161 156 -27 76 -92 201 -120 232 -16 17 -42 34 -58 37 -16 3
-33 15 -38 27 -21 45 -124 102 -140 77z m-5 -634 c0 -7 18 -40 40 -72 58 -85
52 -97 -32 -73 l-38 10 0 59 c0 32 3 65 6 74 8 20 24 21 24 2z m129 -243 c-15
-17 -32 -2 -23 21 5 13 9 14 20 5 11 -9 12 -15 3 -26z m-62 -105 c-3 -7 -5 -2
-5 12 0 14 2 19 5 13 2 -7 2 -19 0 -25z m1366 -95 c7 -40 -3 -186 -14 -198 -5
-5 -10 -27 -10 -50 -1 -22 -5 -53 -9 -70 -6 -27 -8 -28 -14 -10 -4 11 -12 28
-17 37 -5 10 -9 28 -9 40 0 12 -6 29 -14 37 -8 9 -16 27 -18 41 -3 22 1 25 27
25 25 0 31 5 38 30 10 37 15 70 16 113 1 39 17 42 24 5z m-1303 -39 c0 -14 -4
-23 -9 -20 -5 3 -7 15 -4 26 7 28 13 25 13 -6z m-315 5 c4 -6 5 -12 2 -15 -7
-7 -37 7 -37 17 0 13 27 11 35 -2z m107 -41 c4 -7 7 -22 7 -33 0 -15 -2 -16
-6 -5 -8 21 -34 39 -55 40 -10 0 -18 6 -18 14 0 12 7 13 32 5 17 -5 35 -14 40
-21z m33 -28 c1 -42 -12 -42 -15 0 -3 33 -1 40 8 40 4 0 7 -18 7 -40z m35 9
c0 -21 25 -26 34 -6 3 6 4 1 3 -13 -2 -20 -8 -25 -29 -26 -21 -1 -27 4 -31 24
-6 30 1 54 14 46 5 -3 9 -14 9 -25z m170 -9 c0 -11 -5 -22 -11 -25 -6 -4 -14
-16 -18 -28 -12 -33 -18 -6 -9 40 7 31 13 40 23 36 8 -3 15 -13 15 -23z m-131
-85 c-1 -23 -3 -25 -6 -7 -4 22 -19 27 -70 23 -11 -1 -24 2 -27 7 -4 6 16 10
49 9 55 -2 55 -2 54 -32z m1121 -16 c0 -15 -4 -19 -16 -15 -9 3 -21 6 -27 6
-13 1 22 30 35 30 4 0 8 -9 8 -21z m-1031 -11 c0 -7 -4 -22 -9 -33 -8 -18 -9
-18 -9 -2 -1 10 -6 15 -12 12 -6 -4 -5 2 3 14 14 23 28 28 27 9z m-59 -8 c0
-5 -2 -10 -4 -10 -3 0 -8 5 -11 10 -3 6 -1 10 4 10 6 0 11 -4 11 -10z m78 -70
c7 -11 10 -20 6 -20 -7 0 -34 27 -34 34 0 13 16 5 28 -14z m492 -70 c0 -5 -9
-10 -19 -10 -11 0 -23 5 -26 10 -4 6 5 10 19 10 14 0 26 -4 26 -10z m1120 -85
c0 -55 -16 -105 -33 -105 -5 0 -7 10 -3 23 3 12 6 48 6 80 0 44 3 57 15 57 11
0 15 -13 15 -55z m-1055 -225 c-3 -5 3 -13 12 -19 16 -9 16 -12 3 -21 -18 -12
-30 -13 -29 -2 4 22 -3 30 -21 25 -27 -7 -25 11 3 24 23 11 41 7 32 -7z m-245
-15 c0 -8 -9 -15 -20 -15 -20 0 -26 11 -13 23 12 13 33 7 33 -8z m1518 -74 c1
-17 -2 -31 -8 -31 -12 0 -24 45 -15 60 10 17 20 4 23 -29z m-1508 -31 c0 -16
-4 -30 -10 -30 -5 0 -10 14 -10 30 0 17 5 30 10 30 6 0 10 -13 10 -30z m1464
-85 c2 -47 0 -54 -10 -40 -11 15 -13 15 -19 -4 -3 -12 -11 -21 -16 -21 -6 0
-8 -4 -5 -9 3 -5 -1 -14 -9 -21 -16 -13 -18 -7 -9 27 4 13 10 21 14 18 5 -3
12 0 15 6 5 7 -1 9 -16 7 -13 -1 -24 -10 -24 -18 0 -20 -35 -122 -47 -137 -5
-6 -10 -27 -11 -46 -1 -19 -5 -33 -9 -31 -4 3 -16 -13 -27 -34 -11 -21 -27
-45 -37 -53 -18 -15 -18 -15 1 71 1 8 13 49 26 90 19 65 30 83 84 137 35 35
68 77 75 93 17 40 21 33 24 -35z m-959 -88 c0 -26 -20 -25 -23 2 -3 16 1 22
10 19 7 -3 13 -12 13 -21z m-505 -37 c0 -11 -4 -20 -10 -20 -5 0 -10 9 -10 20
0 11 5 20 10 20 6 0 10 -9 10 -20z m1409 1 c7 -5 10 -14 7 -20 -11 -17 -23
-13 -29 9 -6 22 0 25 22 11z m-12 -48 c3 -7 -5 -16 -15 -22 -17 -9 -20 -8 -17
7 2 9 4 21 4 25 1 12 24 3 28 -10z m-152 -105 c-15 -51 -34 -104 -43 -118 -22
-35 -121 -125 -129 -117 -7 7 37 92 103 201 24 39 53 89 65 111 33 59 34 28 4
-77z m-1204 -40 c0 -1 4 -20 8 -41 5 -20 5 -39 1 -42 -5 -3 -6 -14 -3 -24 3
-10 0 -22 -5 -25 -18 -11 -26 77 -13 143 1 5 13 -6 12 -11z m1299 -232 c0 -11
-19 -15 -25 -6 -3 5 1 10 9 10 9 0 16 -2 16 -4z m-1096 -36 c-2 -72 -23 -125
-39 -100 -4 6 -3 16 3 22 6 6 8 31 5 60 -5 45 -4 50 13 46 13 -2 19 -12 18
-28z m310 -147 c-5 -18 -3 -24 5 -19 6 4 11 1 11 -8 0 -17 -9 -20 -26 -8 -13
8 -6 74 7 66 5 -3 6 -17 3 -31z m-17 -115 c-16 -10 -21 6 -12 40 l8 27 8 -30
c6 -20 5 -32 -4 -37z m-7 -53 c0 -39 -15 -48 -22 -12 -5 27 0 47 13 47 5 0 9
-16 9 -35z m21 -86 c9 -19 8 -20 -10 -14 -24 7 -26 2 -11 -26 13 -23 -15 -68
-43 -69 -19 0 -19 0 5 102 10 41 14 46 30 37 9 -5 23 -19 29 -30z m-84 -151
c-3 -8 -6 -5 -6 6 -1 11 2 17 5 13 3 -3 4 -12 1 -19z m-2 -28 c3 -5 1 -10 -4
-10 -6 0 -11 5 -11 10 0 6 2 10 4 10 3 0 8 -4 11 -10z m-591 -535 c19 -49 37
-103 40 -118 6 -25 5 -27 -12 -18 -11 6 -24 27 -30 48 -6 21 -22 70 -36 108
-14 39 -25 84 -25 100 l0 30 14 -30 c8 -16 30 -70 49 -120z m306 -14 c0 -11
-4 -23 -10 -26 -6 -4 -10 5 -10 19 0 14 5 26 10 26 6 0 10 -9 10 -19z m13 -91
c-3 -11 -7 -20 -9 -20 -2 0 -4 9 -4 20 0 11 4 20 9 20 5 0 7 -9 4 -20z m-4
-82 c0 -31 -1 -31 -10 -10 -5 13 -7 28 -3 33 10 16 14 9 13 -23z"/>
<path d="M3271 4666 c-13 -16 -2 -29 16 -18 7 4 8 13 4 20 -6 10 -10 10 -20
-2z"/>
<path d="M1005 4633 c-3 -21 -8 -50 -10 -65 -3 -17 1 -28 11 -32 25 -9 64 -7
64 4 0 10 -3 11 -32 14 -22 2 -21 53 2 76 23 23 19 40 -10 40 -14 0 -21 -9
-25 -37z"/>
<path d="M966 4475 c27 -20 51 -20 34 0 -7 8 -22 15 -33 15 -20 0 -20 0 -1
-15z"/>
<path d="M1386 4437 c3 -10 9 -15 12 -12 3 3 0 11 -7 18 -10 9 -11 8 -5 -6z"/>
<path d="M2428 4409 c-10 -5 -22 -28 -29 -51 -6 -23 -24 -54 -41 -70 -16 -15
-27 -32 -24 -37 3 -5 -1 -11 -9 -15 -9 -3 -31 10 -54 32 -43 41 -117 82 -147
82 -10 0 -31 -12 -46 -27 l-28 -27 37 -38 c20 -21 41 -38 46 -38 6 0 15 -8 22
-17 11 -15 15 -15 29 -4 14 12 19 11 31 -5 8 -10 15 -22 15 -26 0 -5 7 -8 15
-8 8 0 15 -4 15 -10 0 -5 22 -10 48 -10 62 0 83 21 90 90 2 27 8 50 13 50 5 0
9 6 9 13 0 16 37 51 64 61 19 6 19 7 -2 22 -12 8 -22 22 -22 30 0 16 -8 17
-32 3z"/>
<path d="M980 4342 c0 -6 5 -14 11 -17 5 -4 15 -18 20 -32 9 -25 10 -25 24 -7
19 25 19 34 -2 34 -9 0 -25 7 -35 17 -10 9 -18 11 -18 5z"/>
<path d="M2210 4330 c0 -5 5 -10 10 -10 6 0 10 5 10 10 0 6 -4 10 -10 10 -5 0
-10 -4 -10 -10z"/>
<path d="M2450 4304 c-15 -37 -12 -42 10 -15 22 26 26 41 10 41 -6 0 -15 -12
-20 -26z"/>
<path d="M1818 4185 c-12 -22 -18 -65 -8 -65 5 0 12 11 16 25 6 26 1 55 -8 40z"/>
<path d="M2876 4089 c-10 -24 -30 -56 -44 -71 -21 -23 -23 -28 -9 -28 9 0 17
-1 17 -2 0 -2 -7 -27 -15 -57 -8 -30 -12 -58 -9 -63 11 -18 32 14 40 60 l8 47
6 -45 c5 -44 5 -44 20 -20 12 20 14 46 10 124 l-5 99 -19 -44z"/>
<path d="M2570 4053 c-42 -5 -65 -23 -29 -23 13 -1 35 -7 49 -15 33 -19 49
-19 57 0 5 14 -23 47 -37 43 -3 -1 -21 -3 -40 -5z"/>
<path d="M2448 4033 c7 -3 16 -2 19 1 4 3 -2 6 -13 5 -11 0 -14 -3 -6 -6z"/>
<path d="M2150 4010 c-19 -5 -58 -11 -87 -14 -64 -7 -85 -15 -80 -30 5 -16 46
-20 72 -6 21 11 131 9 230 -3 36 -5 87 17 103 44 11 18 10 19 -13 13 -35 -9
-61 -9 -130 -2 -33 3 -76 2 -95 -2z"/>
<path d="M2470 3938 c-56 -25 -176 -50 -255 -53 -103 -3 -104 -4 -65 -24 19
-10 40 -17 46 -14 7 2 17 -5 24 -16 6 -12 20 -21 30 -21 11 0 20 -7 20 -15 0
-9 6 -12 15 -9 8 4 21 2 28 -3 16 -12 67 -15 67 -4 0 5 -6 11 -12 14 -8 2 1
12 20 23 18 11 35 28 38 40 3 11 17 28 32 37 83 51 91 79 12 45z m-105 -78
c-3 -5 -10 -10 -16 -10 -5 0 -9 5 -9 10 0 6 7 10 16 10 8 0 12 -4 9 -10z"/>
<path d="M2198 3903 c6 -2 18 -2 25 0 6 3 1 5 -13 5 -14 0 -19 -2 -12 -5z"/>
<path d="M2620 3828 c0 -18 11 -31 38 -46 36 -20 34 -10 -4 26 -19 18 -34 27
-34 20z"/>
<path d="M1930 3790 c0 -5 5 -10 11 -10 5 0 7 5 4 10 -3 6 -8 10 -11 10 -2 0
-4 -4 -4 -10z"/>
<path d="M2210 3779 c0 -10 -4 -19 -8 -19 -5 0 -20 -9 -33 -21 -19 -16 -21
-22 -9 -29 14 -9 26 1 73 56 17 21 17 22 -3 27 -15 4 -20 0 -20 -14z"/>
<path d="M2330 3750 c0 -5 5 -10 10 -10 6 0 10 5 10 10 0 6 -4 10 -10 10 -5 0
-10 -4 -10 -10z"/>
<path d="M2282 3728 c6 -18 28 -21 28 -4 0 9 -7 16 -16 16 -9 0 -14 -5 -12
-12z"/>
<path d="M1933 3573 c9 -9 19 -14 23 -11 10 10 -6 28 -24 28 -15 0 -15 -1 1
-17z"/>
<path d="M2057 3498 c3 -29 10 -61 15 -70 5 -12 5 -18 -2 -18 -5 0 -10 -13
-10 -30 0 -23 5 -31 24 -36 14 -3 30 -3 35 1 12 7 15 52 4 57 -15 6 -43 70
-43 98 0 15 -7 33 -15 40 -12 10 -13 5 -8 -42z"/>
<path d="M2570 3454 c0 -6 7 -19 15 -30 8 -10 14 -14 14 -9 0 6 -6 19 -14 29
-8 11 -15 15 -15 10z"/>
<path d="M2348 3419 l-27 -34 -1 29 c0 29 0 29 -20 11 -18 -16 -23 -17 -45 -5
-30 16 -42 9 -21 -12 8 -8 16 -30 18 -49 3 -33 5 -34 70 -50 58 -14 75 -24
116 -65 26 -27 64 -59 84 -70 35 -21 36 -21 41 -3 3 10 -1 23 -9 30 -20 16
-18 27 11 61 28 33 36 69 10 48 -10 -9 -15 -9 -15 -1 0 21 -30 11 -36 -13 -8
-34 -74 -22 -74 14 0 10 -6 20 -14 23 -8 3 -16 16 -18 29 -2 13 -10 23 -18 23
-9 0 -17 13 -20 34 l-5 34 -27 -34z"/>
<path d="M2159 3417 c6 -16 7 -38 1 -58 -7 -24 -6 -35 3 -41 20 -12 27 -9 39
16 8 20 7 32 -9 62 -23 45 -49 60 -34 21z"/>
<path d="M2556 3361 c-3 -5 1 -14 9 -21 13 -10 15 -9 15 9 0 21 -14 28 -24 12z"/>
<path d="M2716 3201 c-4 -7 -5 -15 -2 -18 9 -9 19 4 14 18 -4 11 -6 11 -12 0z"/>
<path d="M3311 3194 c0 -11 3 -14 6 -6 3 7 2 16 -1 19 -3 4 -6 -2 -5 -13z"/>
<path d="M2681 3023 c0 -10 4 -27 9 -38 7 -16 9 -13 9 18 1 20 -3 37 -9 37 -5
0 -10 -8 -9 -17z"/>
<path d="M1960 3000 c0 -5 5 -10 11 -10 5 0 7 5 4 10 -3 6 -8 10 -11 10 -2 0
-4 -4 -4 -10z"/>
<path d="M2559 2814 c-4 -36 27 -171 37 -161 3 3 -1 40 -10 83 -15 73 -25 100
-27 78z"/>
<path d="M1325 2758 c-3 -13 -11 -66 -18 -118 -12 -85 -12 -108 4 -219 10 -68
21 -126 24 -129 3 -3 5 15 6 39 l1 44 15 -50 c8 -27 21 -74 29 -102 8 -29 19
-53 24 -53 6 0 6 9 1 23 -5 12 -12 48 -15 80 -4 32 -19 96 -32 142 -20 70 -24
107 -25 224 -1 78 -3 141 -5 141 -2 0 -6 -10 -9 -22z"/>
<path d="M2735 2770 c3 -5 15 -10 26 -10 10 0 19 5 19 10 0 6 -12 10 -26 10
-14 0 -23 -4 -19 -10z"/>
<path d="M5161 2487 c-13 -21 -12 -21 5 -5 10 10 16 20 13 22 -3 3 -11 -5 -18
-17z"/>
<path d="M2560 2485 c0 -8 7 -15 15 -15 9 0 12 6 9 15 -4 8 -10 15 -15 15 -5
0 -9 -7 -9 -15z"/>
<path d="M2610 2470 c0 -5 -17 -12 -37 -16 -35 -7 -36 -8 -15 -17 28 -13 28
-27 1 -27 -21 0 -21 -1 5 -25 31 -29 61 -32 74 -8 9 14 11 14 21 -5 17 -32 36
-27 48 12 14 44 6 91 -12 76 -9 -8 -17 -6 -28 5 -17 17 -57 21 -57 5z"/>
<path d="M5126 2358 c-21 -77 -28 -124 -17 -113 13 15 50 165 40 165 -5 0 -15
-24 -23 -52z"/>
<path d="M5222 2250 c0 -14 2 -19 5 -12 2 6 2 18 0 25 -3 6 -5 1 -5 -13z"/>
<path d="M5202 2178 c-6 -24 -14 -56 -18 -71 -4 -16 -13 -31 -20 -34 -8 -3
-14 -11 -14 -19 0 -7 -9 -18 -20 -24 -11 -6 -20 -19 -20 -29 0 -14 -6 -17 -25
-13 -20 3 -24 1 -19 -11 9 -24 -12 -54 -37 -52 -30 2 -37 25 -10 32 25 6 28
23 5 23 -10 0 -14 6 -11 14 12 32 -8 22 -36 -17 -16 -23 -38 -50 -48 -60 -22
-21 -27 -46 -5 -28 16 14 42 -11 30 -30 -5 -8 -3 -9 6 -4 9 5 10 2 5 -14 -5
-17 -2 -21 18 -21 35 0 103 53 138 107 37 60 88 190 96 248 7 57 1 58 -15 3z"/>
<path d="M5081 2180 c-1 -8 -15 -44 -31 -78 -34 -71 -34 -72 -20 -72 11 0 42
55 34 62 -2 3 3 22 11 42 9 21 14 43 11 49 -2 7 -5 6 -5 -3z"/>
<path d="M4799 1970 c-3 -25 -3 -53 -1 -63 6 -24 28 -15 24 9 -2 10 -7 37 -11
59 l-7 40 -5 -45z"/>
<path d="M1930 1980 c0 -5 5 -10 10 -10 6 0 10 5 10 10 0 6 -4 10 -10 10 -5 0
-10 -4 -10 -10z"/>
<path d="M4590 1958 c0 -9 5 -20 10 -23 13 -8 13 5 0 25 -8 13 -10 13 -10 -2z"/>
<path d="M4830 1877 c0 -8 7 -17 15 -21 8 -3 15 -3 15 0 0 3 -7 12 -15 20 -13
13 -15 13 -15 1z"/>
<path d="M3208 1775 c-10 -13 -18 -31 -18 -39 0 -9 -7 -16 -16 -16 -11 0 -14
-6 -9 -20 4 -12 -6 -46 -26 -87 -57 -122 -101 -227 -130 -307 -31 -85 -34
-114 -5 -44 10 24 33 77 51 118 30 68 49 113 108 250 10 25 23 54 27 65 23 51
40 98 38 101 -2 1 -11 -8 -20 -21z"/>
<path d="M4261 1704 c0 -11 3 -14 6 -6 3 7 2 16 -1 19 -3 4 -6 -2 -5 -13z"/>
<path d="M2515 1649 c8 -66 17 -87 45 -107 31 -23 60 -29 60 -11 0 5 5 7 10 4
12 -7 13 7 3 21 -5 5 -4 6 2 2 15 -12 25 -9 25 7 0 8 -6 15 -13 15 -7 0 -37
23 -67 50 -30 28 -57 50 -62 50 -4 0 -5 -14 -3 -31z"/>
<path d="M1543 1649 c-6 -8 -23 -38 -38 -68 -19 -38 -23 -57 -16 -64 8 -8 11
-6 11 6 0 9 4 17 9 17 11 0 53 98 49 112 -2 6 -8 5 -15 -3z"/>
<path d="M3205 1649 c-4 -6 -5 -12 -2 -15 2 -3 7 2 10 11 7 17 1 20 -8 4z"/>
<path d="M3105 1609 c-4 -6 -5 -12 -2 -15 2 -3 7 2 10 11 7 17 1 20 -8 4z"/>
<path d="M3167 1538 c-37 -108 -75 -238 -81 -283 -10 -63 9 -11 44 119 16 61
38 137 50 170 12 32 19 60 17 62 -2 3 -16 -28 -30 -68z"/>
<path d="M3051 1499 c-76 -165 -101 -222 -97 -226 4 -4 24 37 88 177 21 47 43
93 49 103 6 11 8 21 5 24 -3 3 -23 -32 -45 -78z"/>
<path d="M2957 1163 c-9 -25 -15 -48 -13 -50 2 -2 12 16 21 42 10 25 16 47 13
50 -2 2 -12 -17 -21 -42z"/>
<path d="M3072 1190 c0 -14 2 -19 5 -12 2 6 2 18 0 25 -3 6 -5 1 -5 -13z"/>
<path d="M2886 1113 c-33 -87 -64 -214 -49 -202 7 6 13 20 13 30 0 10 14 59
31 109 32 97 36 144 5 63z"/>
<path d="M2923 1075 c-3 -9 -3 -18 -1 -21 3 -3 8 4 11 16 6 23 -1 27 -10 5z"/>
<path d="M2750 580 c0 -13 40 -13 60 0 11 7 5 10 -22 10 -21 0 -38 -4 -38 -10z"/>
<path d="M2364 336 c-10 -8 -16 -17 -13 -20 3 -3 14 3 24 14 21 23 17 26 -11
6z"/>
</g>
</svg>
